<?xml version="1.0" encoding="UTF-8" standalone="no"?>
<!-- Created with Inkscape (http://www.inkscape.org/) -->

<svg
   width="267.49216mm"
   height="181.20444mm"
   viewBox="0 0 267.49216 181.20444"
   version="1.1"
   id="svg5"
   xml:space="preserve"
   xmlns="http://www.w3.org/2000/svg"
   xmlns:svg="http://www.w3.org/2000/svg"><defs
     id="defs2" /><g
     id="layer1"
     transform="translate(-341.24615,-311.27799)"><path
       id="rect8975"
       style="fill:#000000;fill-opacity:1;stroke-width:32.6127;stroke-linecap:round;stroke-linejoin:round;paint-order:stroke fill markers"
       d="m 349.87482,311.27799 v 8.62867 h -8.62867 v 163.9471 h 8.62867 v 8.62867 h 250.23482 v -8.62867 h 8.62867 v -163.9471 h -8.62867 v -8.62867 z" /><path
       id="rect9182"
       style="fill:#55aaaa;fill-opacity:1;stroke-width:32.6127;stroke-linecap:round;stroke-linejoin:round;paint-order:stroke fill markers"
       d="m 358.50382,319.90666 v 155.3181 h 232.97714 v -146.6891 h 8.62868 v -8.629 z" /><path
       id="rect8550"
       style="fill:#000000;fill-opacity:1;stroke-width:32.6127;stroke-linecap:round;stroke-linejoin:round;paint-order:stroke fill markers"
       d="m 375.76117,328.53566 v 34.51503 h 8.629 v -25.88635 h 120.80275 v -8.62868 z m 8.629,43.1437 v 8.629 h -8.629 v 17.25735 h 25.88635 v -25.88635 z m 34.51503,0 v 8.629 h -8.62868 v 17.25735 h 25.88635 v -25.88635 z m 34.51502,0 v 8.629 h -8.62867 v 17.25735 h 25.88634 v -25.88635 z m 34.51535,0 v 8.629 h -8.629 v 17.25735 h 25.88635 v -25.88635 z m 34.51502,0 v 8.629 h -8.62867 v 17.25735 h 25.88635 v -25.88635 z m 34.51503,0 v 8.629 h -8.62868 v 17.25735 h 25.88635 v -25.88635 z m -172.57545,34.51535 v 8.62868 h -8.629 v 17.25767 h 25.88635 v -25.88635 z m 34.51503,0 v 8.62868 h -8.62868 v 17.25767 h 25.88635 v -25.88635 z m 34.51502,0 v 8.62868 h -8.62867 v 17.25767 h 25.88634 v -25.88635 z m 34.51535,0 v 8.62868 h -8.629 v 17.25767 h 25.88635 v -25.88635 z m 34.51502,0 v 8.62868 h -8.62867 v 17.25767 h 25.88635 v -25.88635 z m 34.51503,0 v 8.62868 h -8.62868 v 17.25767 h 25.88635 v -25.88635 z m -172.57545,34.51502 v 8.62868 h -8.629 v 17.25767 h 25.88635 v -25.88635 z m 34.51503,0 v 8.62868 h -8.62868 v 17.25767 h 25.88635 v -25.88635 z m 34.51502,0 v 8.62868 h -8.62867 v 17.25767 h 25.88634 v -25.88635 z m 34.51535,0 v 8.62868 h -8.629 v 17.25767 h 25.88635 v -25.88635 z m 77.65905,0 v 17.25768 h -51.7727 v 8.62867 h 60.40137 v -25.88635 z" /><path
       id="rect7236"
       style="fill:#c2c6ca;fill-opacity:1;stroke-width:32.6127;stroke-linecap:round;stroke-linejoin:round;paint-order:stroke fill markers"
       d="m 384.39017,337.16434 v 8.62867 h 112.17407 v -8.62867 z m 0,34.51502 v 8.629 h -8.629 v 8.62868 h 17.25768 v -17.25768 z m 25.88635,0 v 17.25768 h 17.25735 v -17.25768 z m 34.51503,0 v 17.25768 h 17.25767 v -17.25768 z m 34.51502,0 v 17.25768 h 17.25767 v -17.25768 z m 34.51535,0 v 17.25768 h 17.25735 v -17.25768 z m 34.51502,0 v 17.25768 h 17.25768 v -17.25768 z m -163.94677,34.51535 v 8.62868 h -8.629 v 8.62867 h 17.25768 v -17.25735 z m 25.88635,0 v 17.25735 h 17.25735 v -17.25735 z m 34.51503,0 v 17.25735 h 17.25767 v -17.25735 z m 34.51502,0 v 17.25735 h 17.25767 v -17.25735 z m 34.51535,0 v 17.25735 h 17.25735 v -17.25735 z m 34.51502,0 v 17.25735 h 17.25768 v -17.25735 z m -163.94677,34.51502 v 8.62868 h -8.629 v 8.629 h 17.25768 v -17.25768 z m 25.88635,0 v 17.25768 h 17.25735 v -17.25768 z m 34.51503,0 v 17.25768 h 17.25767 v -17.25768 z m 34.51502,0 v 17.25768 h 17.25767 v -17.25768 z m 43.14402,8.62868 v 8.629 h 43.14403 v -8.629 z" /><path
       id="rect7002"
       style="fill:#ffffff;stroke-width:32.6127;stroke-linecap:round;stroke-linejoin:round;paint-order:stroke fill markers"
       d="m 384.39017,345.79301 v 8.629 h 112.17407 v -8.629 z m 25.88635,25.88635 v 8.629 h 8.62868 v -8.629 z m 34.51503,0 v 8.629 h 8.62867 v -8.629 z m 34.51502,0 v 8.629 h 8.629 v -8.629 z m 34.51535,0 v 8.629 h 8.62867 v -8.629 z m 34.51502,0 v 8.629 h 8.62868 v -8.629 z m -138.06042,34.51535 v 8.62868 h 8.62868 v -8.62868 z m 34.51503,0 v 8.62868 h 8.62867 v -8.62868 z m 34.51502,0 v 8.62868 h 8.629 v -8.62868 z m 34.51535,0 v 8.62868 h 8.62867 v -8.62868 z m 34.51502,0 v 8.62868 h 8.62868 v -8.62868 z m -138.06042,34.51502 v 8.62868 h 8.62868 v -8.62868 z m 34.51503,0 v 8.62868 h 8.62867 v -8.62868 z m 34.51502,0 v 8.62868 h 8.629 v -8.62868 z m 34.51535,0 v 17.25768 h 8.62867 v -8.629 h 43.14403 v -8.62868 z" /><path
       id="rect8982"
       style="fill:#00ffff;fill-opacity:1;stroke-width:32.6127;stroke-linecap:round;stroke-linejoin:round;paint-order:stroke fill markers"
       d="m 349.87482,319.90666 v 155.3181 h 8.629 v -146.6891 h 232.97714 v -8.629 z m 146.68942,17.25768 v 17.25767 H 384.39017 v 8.62868 h 120.80275 v -25.88635 z" /><path
       id="rect9753"
       style="fill:#0000ff;fill-opacity:1;stroke-width:32.6127;stroke-linecap:round;stroke-linejoin:round;paint-order:stroke fill markers"
       d="m 591.48096,337.16434 v 146.68942 h 8.62868 V 337.16434 Z M 349.87482,475.22476 v 8.629 h 232.97714 v -8.629 z" /><path
       id="rect9308"
       style="fill:#aa55aa;fill-opacity:1;stroke-width:32.6127;stroke-linecap:round;stroke-linejoin:round;paint-order:stroke fill markers"
       d="m 591.48096,328.53566 v 8.62868 h 8.62868 v -8.62868 z m 0,17.25735 v 8.629 h 8.62868 v -8.629 z m 0,17.25768 v 8.62867 h 8.62868 v -8.62867 z m 0,17.25767 v 8.62868 h 8.62868 v -8.62868 z m 0,17.25735 v 8.629 h 8.62868 v -8.629 z m 0,17.25768 v 8.62867 h 8.62868 v -8.62867 z m 0,17.25767 v 8.62867 h 8.62868 v -8.62867 z m 0,17.25735 v 8.629 h 8.62868 v -8.629 z m 0,17.25767 v 8.62868 h 8.62868 v -8.62868 z m 0,8.62868 h -8.629 v 8.629 h 8.629 z m -232.97714,0 v 8.629 h 8.62868 v -8.629 z m 17.25735,0 v 8.629 h 8.629 v -8.629 z m 17.25768,0 v 8.629 h 8.62867 v -8.629 z m 17.25767,0 v 8.629 h 8.62868 v -8.629 z m 17.25735,0 v 8.629 h 8.629 v -8.629 z m 17.25768,0 v 8.629 h 8.62867 v -8.629 z m 17.25767,0 v 8.629 h 8.62867 v -8.629 z m 17.25735,0 v 8.629 h 8.629 v -8.629 z m 17.25767,0 v 8.629 h 8.62868 v -8.629 z m 17.25768,0 v 8.629 h 8.62867 v -8.629 z m 17.25735,0 v 8.629 h 8.629 v -8.629 z m 17.25767,0 v 8.629 h 8.62868 v -8.629 z m 17.25768,0 v 8.629 h 8.62867 v -8.629 z" /></g></svg>
